<svg version="1" xmlns="http://www.w3.org/2000/svg" width="853.333" height="853.333" viewBox="0 0 640.000000 640.000000"><path d="M132.9 166.7C4.8 295 13.6 285.2 13.5 300c0 15.1-11 3.1 147.2 161.1 157.2 157 144.4 145.3 159.3 145.4 6.5 0 8.4-.4 14.1-3.2 6.1-3 17.2-13.9 146-143.7C636.7 301.8 626.5 313 626.5 298.1c0-14.9 4.6-9.6-91.3-105.4l-84.9-84.9-8.4 2.6c-27.7 8.3-54.4 8-72.2-.9-16.1-8.1-28.3-23.6-33.3-42.5-1-3.6-1.9-6.7-2-6.8-.1-.2-3 1.9-6.4 4.7-3.4 2.8-7.8 6-9.8 7-20 10.2-43.1 4.9-64.3-14.6-3.1-2.9-5.8-5.3-6-5.3-.3 0-52 51.6-115 114.7zm379.9 20.9c6.3 1.2 11.6 2.5 11.9 2.8.3.3-.6 6.6-2.2 13.9l-2.8 13.3-9.1-1.8c-20.3-3.9-31.9-1.6-36.3 7.2-1.9 3.8-8.3 31.2-8.3 35.5 0 1.3 2.7 1.5 16.5 1.5 9.1 0 16.5.3 16.5.7 0 .5-1.2 5.9-2.7 12l-2.7 11.3h-36.1l-16.9 81-17 81H394l.5-2.3c1.7-7.2 33.5-159.9 33.5-160.7 0-.6-5.5-1-13.5-1-7.4 0-13.5-.3-13.5-.8 0-.4 1.2-5.8 2.7-12l2.7-11.2h28.2l3.8-17.8c6.3-29.3 9.8-38.6 16.8-44.7 13.3-11.3 29.7-13.6 57.6-7.9zm-218.3-.6c17.9 1 24.2 2.4 35.9 7.9 14.3 6.6 28 22.2 32.7 36.9 2.7 8.7 2.9 23.9.4 33.2-4.3 16.3-15.2 31.1-27.7 37.5-3.2 1.7-5.8 3.3-5.8 3.6 0 .4 1.4.9 3.2 1.3 6.1 1.2 17.8 7.7 23.7 13.2 17.8 16.5 24.8 43.1 18.1 68.6-2.3 8.4-11.2 23.9-17.5 30.3-7.5 7.6-14.1 11.4-28.1 16.1-14.3 4.8-20.9 5.2-103.1 6l-64.3.7V186h58.3c32 .1 65.4.5 74.2 1z"/><path d="M214 260v30h37.5c35.8 0 37.7-.1 43.1-2.1 7.1-2.7 13.5-8.4 16.9-15.2 2-4 2.5-6.6 2.5-12.3 0-13.6-4.4-21.8-14.6-26.9l-5.9-3-39.7-.3-39.8-.3V260zM214 364.9V400h38.7c42.1 0 46.7-.5 56.5-5.8 5-2.6 8.9-7.7 12.9-16.6 1.8-4.2 2.1-6.2 1.7-13.5-.5-10.2-3.1-16.5-9.3-22.6-9.5-9.5-15.5-10.6-62.7-11.2l-37.8-.5v35.1z"/></svg>