
    

<svg width="310" height="103" viewBox="0 0 310 103" version="1.1" xmlns="http://www.w3.org/2000/svg" xmlns:xlink="http://www.w3.org/1999/xlink">
    <svg><svg width="310" height="103" viewBox="0 0 310 103" version="1.1" xmlns="http://www.w3.org/2000/svg" xmlns:xlink="http://www.w3.org/1999/xlink">    <title>Page 1</title>    <desc>Created using Figma</desc>    <g id="Canvas_1" transform="translate(-583 -242)">        <g id="Card Copy 9_1">            <use xlink:href="#path0_fill_1" transform="translate(583 242)" fill="#3E4A56"/>        </g>        <g id="Card Copy 9_1">            <use xlink:href="#path1_stroke_1" transform="translate(593 252)" fill="#FFFFFF"/>        </g>    </g>    <defs>        <path id="path0_fill_1" fill-rule="evenodd" d="M 0 8C 0 3.58172 3.58172 0 8 0L 302 0C 306.418 0 310 3.58172 310 8L 310 95C 310 99.4183 306.418 103 302 103L 7.99999 103C 3.58171 103 0 99.4183 0 95L 0 8Z"/>        <path id="path1_stroke_1" d="M 8 1L 281 1L 281 -1L 8 -1L 8 1ZM 288 8L 288 75L 290 75L 290 8L 288 8ZM 281 82L 8 82L 8 84L 281 84L 281 82ZM 1 75L 1 8L -1 8L -1 75L 1 75ZM 8 82C 4.134 82 1 78.866 1 75L -1 75C -1 79.9706 3.02943 84 8 84L 8 82ZM 288 75C 288 78.866 284.866 82 281 82L 281 84C 285.971 84 290 79.9706 290 75L 288 75ZM 281 1C 284.866 1 288 4.13401 288 8L 290 8C 290 3.02944 285.971 -1 281 -1L 281 1ZM 8 -1C 3.02944 -1 -1 3.02944 -1 8L 1 8C 1 4.13401 4.13401 1 8 1L 8 -1Z"/>    </defs></svg></svg>

    
        <svg x="25" y="41" width="129" height="20" viewBox="0 0 129 20" version="1.1" xmlns="http://www.w3.org/2000/svg" xmlns:xlink="http://www.w3.org/1999/xlink">
            <g id="Canvas" transform="translate(-604 -284)">
                <g id="RATING">
                    <use xlink:href="#path0_fill" transform="translate(553 277)" fill="#FFFFFF"/>
                </g>
            </g>
            <defs>
                <path id="path0_fill" d="M 62.2556 23.673L 62.2556 26L 51.5696 26L 51.5696 7.332L 54.3386 7.332L 54.3386 23.673L 62.2556 23.673ZM 67.7324 26L 64.9504 26L 64.9504 7.332L 67.7324 7.332L 67.7324 26ZM 81.9981 10.374C 81.9114 10.5213 81.8204 10.6297 81.7251 10.699C 81.6298 10.7683 81.5084 10.803 81.3611 10.803C 81.2051 10.803 81.0274 10.7337 80.8281 10.595C 80.6288 10.4477 80.3774 10.2873 80.0741 10.114C 79.7794 9.932 79.4241 9.77167 79.0081 9.633C 78.5921 9.48567 78.0938 9.412 77.5131 9.412C 76.9671 9.412 76.4861 9.48567 76.0701 9.633C 75.6628 9.77167 75.3204 9.96667 75.0431 10.218C 74.7658 10.4607 74.5534 10.751 74.4061 11.089C 74.2674 11.4183 74.1981 11.778 74.1981 12.168C 74.1981 12.6707 74.3238 13.0867 74.5751 13.416C 74.8351 13.7453 75.1731 14.027 75.5891 14.261C 76.0051 14.495 76.4774 14.6987 77.0061 14.872C 77.5348 15.0453 78.0764 15.2273 78.6311 15.418C 79.1858 15.6 79.7274 15.8123 80.2561 16.055C 80.7848 16.2977 81.2571 16.6053 81.6731 16.978C 82.0891 17.342 82.4228 17.7927 82.6741 18.33C 82.9341 18.8587 83.0641 19.5087 83.0641 20.28C 83.0641 21.1033 82.9211 21.8747 82.6351 22.594C 82.3578 23.3133 81.9504 23.9417 81.4131 24.479C 80.8758 25.0163 80.2128 25.441 79.4241 25.753C 78.6441 26.0563 77.7558 26.208 76.7591 26.208C 76.1611 26.208 75.5804 26.1473 75.0171 26.026C 74.4538 25.9133 73.9208 25.753 73.4181 25.545C 72.9154 25.3283 72.4431 25.0727 72.0011 24.778C 71.5678 24.4747 71.1778 24.1367 70.8311 23.764L 71.6241 22.438C 71.7021 22.334 71.7931 22.2473 71.8971 22.178C 72.0098 22.1087 72.1354 22.074 72.2741 22.074C 72.4561 22.074 72.6641 22.1693 72.8981 22.36C 73.1408 22.5507 73.4354 22.763 73.7821 22.997C 74.1374 23.2223 74.5578 23.4303 75.0431 23.621C 75.5371 23.8117 76.1351 23.907 76.8371 23.907C 77.4091 23.907 77.9204 23.8333 78.3711 23.686C 78.8218 23.53 79.1988 23.3133 79.5021 23.036C 79.8141 22.75 80.0524 22.4077 80.2171 22.009C 80.3818 21.6103 80.4641 21.1683 80.4641 20.683C 80.4641 20.137 80.3384 19.6907 80.0871 19.344C 79.8358 18.9973 79.5021 18.707 79.0861 18.473C 78.6701 18.239 78.1978 18.0397 77.6691 17.875C 77.1404 17.7103 76.5988 17.5413 76.0441 17.368C 75.4894 17.186 74.9478 16.978 74.4191 16.744C 73.8904 16.51 73.4181 16.2067 73.0021 15.834C 72.5861 15.4527 72.2524 14.9803 72.0011 14.417C 71.7498 13.845 71.6241 13.143 71.6241 12.311C 71.6241 11.6437 71.7541 10.998 72.0141 10.374C 72.2741 9.75 72.6511 9.19967 73.1451 8.723C 73.6478 8.23767 74.2631 7.852 74.9911 7.566C 75.7191 7.27133 76.5511 7.124 77.4871 7.124C 78.5358 7.124 79.4978 7.293 80.3731 7.631C 81.2571 7.96033 82.0241 8.437 82.6741 9.061L 81.9981 10.374ZM 99.2087 9.646L 93.2807 9.646L 93.2807 26L 90.5247 26L 90.5247 9.646L 84.5707 9.646L 84.5707 7.332L 99.2087 7.332L 99.2087 9.646ZM 113.477 23.751L 113.464 26L 101.894 26L 101.894 7.332L 113.464 7.332L 113.464 9.581L 104.676 9.581L 104.676 15.496L 111.748 15.496L 111.748 17.667L 104.676 17.667L 104.676 23.751L 113.477 23.751ZM 133.189 16.666C 133.189 18.0613 132.963 19.331 132.513 20.475C 132.071 21.619 131.442 22.6027 130.628 23.426C 129.813 24.2407 128.838 24.8733 127.703 25.324C 126.567 25.7747 125.306 26 123.92 26L 116.9 26L 116.9 7.332L 123.92 7.332C 125.306 7.332 126.567 7.55733 127.703 8.008C 128.838 8.45867 129.813 9.09567 130.628 9.919C 131.442 10.7337 132.071 11.7173 132.513 12.87C 132.963 14.014 133.189 15.2793 133.189 16.666ZM 130.355 16.666C 130.355 15.5567 130.203 14.5643 129.9 13.689C 129.596 12.805 129.163 12.0597 128.6 11.453C 128.045 10.8377 127.369 10.3697 126.572 10.049C 125.783 9.72833 124.899 9.568 123.92 9.568L 119.682 9.568L 119.682 23.764L 123.92 23.764C 124.899 23.764 125.783 23.6037 126.572 23.283C 127.369 22.9623 128.045 22.4987 128.6 21.892C 129.163 21.2767 129.596 20.5313 129.9 19.656C 130.203 18.7807 130.355 17.784 130.355 16.666ZM 160.649 16.666C 160.649 18.0613 160.424 19.344 159.973 20.514C 159.531 21.6753 158.903 22.6807 158.088 23.53C 157.273 24.3707 156.298 25.025 155.163 25.493C 154.028 25.961 152.767 26.195 151.38 26.195C 150.002 26.195 148.741 25.961 147.597 25.493C 146.462 25.025 145.487 24.3707 144.672 23.53C 143.866 22.6807 143.238 21.6753 142.787 20.514C 142.336 19.344 142.111 18.0613 142.111 16.666C 142.111 15.2793 142.336 14.001 142.787 12.831C 143.238 11.661 143.866 10.6557 144.672 9.815C 145.487 8.96567 146.462 8.307 147.597 7.839C 148.741 7.36233 150.002 7.124 151.38 7.124C 152.767 7.124 154.028 7.36233 155.163 7.839C 156.298 8.307 157.273 8.96567 158.088 9.815C 158.903 10.6557 159.531 11.661 159.973 12.831C 160.424 14.001 160.649 15.2793 160.649 16.666ZM 157.815 16.666C 157.815 15.5567 157.663 14.56 157.36 13.676C 157.057 12.792 156.623 12.0423 156.06 11.427C 155.505 10.8117 154.829 10.3393 154.032 10.01C 153.243 9.68067 152.359 9.516 151.38 9.516C 150.401 9.516 149.512 9.68067 148.715 10.01C 147.926 10.3393 147.25 10.8117 146.687 11.427C 146.124 12.0423 145.69 12.792 145.387 13.676C 145.084 14.56 144.932 15.5567 144.932 16.666C 144.932 17.784 145.084 18.785 145.387 19.669C 145.69 20.5443 146.124 21.2897 146.687 21.905C 147.25 22.5203 147.926 22.9927 148.715 23.322C 149.512 23.6427 150.401 23.803 151.38 23.803C 152.359 23.803 153.243 23.6427 154.032 23.322C 154.829 22.9927 155.505 22.5203 156.06 21.905C 156.623 21.2897 157.057 20.5443 157.36 19.669C 157.663 18.785 157.815 17.784 157.815 16.666ZM 179.414 7.332L 179.414 26L 178.01 26C 177.794 26 177.612 25.961 177.464 25.883C 177.326 25.805 177.183 25.6793 177.035 25.506L 166.492 11.869C 166.51 12.103 166.523 12.3327 166.531 12.558C 166.549 12.7833 166.557 12.9957 166.557 13.195L 166.557 26L 164.126 26L 164.126 7.332L 165.556 7.332C 165.799 7.332 165.981 7.36233 166.102 7.423C 166.224 7.475 166.358 7.60067 166.505 7.8L 177.074 21.45C 177.048 21.1987 177.027 20.956 177.009 20.722C 177.001 20.4793 176.996 20.254 176.996 20.046L 176.996 7.332L 179.414 7.332Z"/>
            </defs>
        </svg>
        <svg height="50" y="26" x="165" viewBox="0 0 213 92" preserveAspectRatio="xMinYMin meet"><svg width="213" height="92" viewBox="0 0 213 92" version="1.1" xmlns="http://www.w3.org/2000/svg" xmlns:xlink="http://www.w3.org/1999/xlink"><title>ICOHOLDER_LOGO2</title><desc>Created using Figma</desc><g id="Canvas_2" transform="translate(-622 -335)"><g id="ICOHOLDER_LOGO2_2"><g id="Group_2"><g id="Shape_2"><use xlink:href="#path0_fill_2" transform="translate(697.661 398.574)" fill="#FFFFFF"/></g><g id="Shape_2"><use xlink:href="#path1_fill_2" transform="translate(714.097 355.707)" fill="#FFFFFF"/></g><g id="Shape_2"><use xlink:href="#path2_fill_2" transform="translate(688.177 335.088)" fill="#FFFFFF"/></g><g id="Shape_2"><use xlink:href="#path3_fill_2" transform="translate(714.126 398.545)" fill="#FFFFFF"/></g><g id="Shape_2"><use xlink:href="#path4_fill_2" transform="translate(688.147 398.545)" fill="#FFFFFF"/></g><g id="Shape_2"><use xlink:href="#path5_fill_2" transform="translate(697.691 345.409)" fill="#FFFFFF"/></g></g><g id="Group_2"><g id="Shape_2"><use xlink:href="#path6_fill_2" transform="translate(622.234 367.357)" fill="#FFFFFF"/></g><g id="Shape_2"><use xlink:href="#path7_fill_2" transform="translate(631.405 367.03)" fill="#FFFFFF"/></g><g id="Shape_2"><use xlink:href="#path8_fill_2" transform="translate(656.982 367.089)" fill="#FFFFFF"/></g><g id="Shape_2"><use xlink:href="#path9_fill_2" transform="translate(688.156 367.357)" fill="#FFFFFF"/></g><g id="Shape_2"><use xlink:href="#path10_fill_2" transform="translate(714.788 367.089)" fill="#FFFFFF"/></g><g id="Shape_2"><use xlink:href="#path11_fill_2" transform="translate(745.962 367.357)" fill="#FFFFFF"/></g><g id="Shape_2"><use xlink:href="#path12_fill_2" transform="translate(765.094 367.357)" fill="#FFFFFF"/></g><g id="Shape_2"><use xlink:href="#path13_fill_2" transform="translate(793.103 367.328)" fill="#FFFFFF"/></g><g id="Shape_2"><use xlink:href="#path14_fill_2" transform="translate(815.077 367.387)" fill="#FFFFFF"/></g></g></g></g><defs><path id="path0_fill_2" d="M 1.73782 1.79872L 28.4825 17.25C 29.1895 17.6628 29.9847 17.8692 30.78 17.8692C 31.5753 17.8692 32.3705 17.6628 33.0775 17.25L 59.8222 1.79872C 60.5585 1.35641 61.1771 0.737179 61.56 0L 56.4644 0L 31.4575 14.4487C 31.0451 14.6846 30.5149 14.6846 30.1025 14.4487L 5.09564 0L 0 0C 0.382909 0.737179 1.00145 1.35641 1.73782 1.79872Z"/><path id="path1_fill_2" d="M 11.9585 0.641346L 0 7.57083L 6.48 7.57083L 13.5785 3.47212C 14.0498 3.20673 14.6389 3.20673 15.1102 3.47212L 22.2087 7.57083L 28.6887 7.57083L 16.7302 0.641346C 15.2869 -0.213782 13.4313 -0.213782 11.9585 0.641346Z"/><path id="path2_fill_2" d="M 3.24 28.1897L 3.24 25.241C 3.24 24.7397 3.50509 24.2679 3.94691 24.0321L 39.5869 3.42051C 40.0287 3.18462 40.5589 3.18462 41.0007 3.42051L 76.6407 24.0321C 77.0825 24.2679 77.3476 24.7397 77.3476 25.241L 77.3476 28.1897L 80.5876 28.1897L 80.5876 25.241C 80.5876 23.5897 79.704 22.0564 78.2607 21.2308L 42.6207 0.619231C 41.1775 -0.20641 39.4102 -0.20641 37.9669 0.619231L 2.32691 21.2308C 0.883636 22.0564 0 23.5897 0 25.2705L 0 28.2192L 3.24 28.2192L 3.24 28.1897Z"/><path id="path3_fill_2" d="M 14.3149 7.57821C 15.1396 7.57821 15.9644 7.37179 16.7007 6.92949L 28.6593 0L 22.1793 0L 15.1102 4.12821C 14.6389 4.39359 14.0498 4.39359 13.5785 4.12821L 6.48 0.0294872L 0 0.0294872L 11.9585 6.95897C 12.6655 7.37179 13.4902 7.57821 14.3149 7.57821Z"/><path id="path4_fill_2" d="M 77.3476 0.0294872L 77.3476 2.97821C 77.3476 3.47949 77.0825 3.95128 76.6407 4.18718L 41.0007 24.7987C 40.5589 25.0346 40.0287 25.0346 39.5869 24.7987L 3.94691 4.18718C 3.50509 3.95128 3.24 3.47949 3.24 2.97821L 3.24 0.0294872L 0 0.0294872L 0 2.97821C 0 4.62949 0.883636 6.16282 2.32691 6.98846L 37.9669 27.6C 38.6738 28.0128 39.4985 28.2192 40.2938 28.2192C 41.0891 28.2192 41.9138 28.0128 42.6207 27.6L 78.2607 6.98846C 79.704 6.16282 80.5876 4.62949 80.5876 2.94872L 80.5876 0L 77.3476 0L 77.3476 0.0294872Z"/><path id="path5_fill_2" d="M 59.8222 16.0705L 33.0775 0.619231C 31.6636 -0.20641 29.8964 -0.20641 28.4825 0.619231L 1.73782 16.0705C 1.00145 16.5128 0.382909 17.1321 0 17.8692L 5.09564 17.8692L 30.1025 3.42051C 30.5149 3.18462 31.0451 3.18462 31.4575 3.42051L 56.4644 17.8692L 61.56 17.8692C 61.1476 17.1321 60.5585 16.4833 59.8222 16.0705Z"/><path id="path6_fill_2" d="M 3.60371 27.1064L 0 27.1064L 0 0L 3.60371 0L 3.60371 27.1064Z"/><path id="path7_fill_2" d="M 20.3624 21.834C 20.5675 21.834 20.7433 21.9234 20.8898 22.0723L 22.2961 23.6511C 21.2121 24.9319 19.8937 25.9447 18.3116 26.6596C 16.7294 27.3745 14.8836 27.7319 12.6862 27.7319C 10.7525 27.7319 9.02393 27.4043 7.47111 26.7191C 5.91829 26.034 4.57056 25.1106 3.48652 23.8894C 2.40248 22.6681 1.52352 21.2085 0.908253 19.5106C 0.292985 17.8128 0 15.9362 0 13.8809C 0 11.8255 0.322283 9.97872 0.96685 8.25106C 1.61142 6.55319 2.51967 5.09362 3.72091 3.87234C 4.89285 2.65106 6.29917 1.69787 7.93989 1.01277C 9.58061 0.32766 11.3971 0 13.3894 0C 15.3524 0 17.0517 0.297872 18.458 0.923404C 19.8644 1.54894 21.1535 2.38298 22.2376 3.42553L 21.0656 5.1234C 20.9777 5.24255 20.8898 5.3617 20.7726 5.42128C 20.6554 5.51064 20.5089 5.54043 20.2746 5.54043C 20.0988 5.54043 19.9523 5.48085 19.7765 5.3617C 19.6007 5.24255 19.3956 5.09362 19.1319 4.91489C 18.8975 4.73617 18.6045 4.55745 18.253 4.34894C 17.9014 4.14043 17.5205 3.9617 17.0517 3.78298C 16.5829 3.60426 16.0556 3.45532 15.4403 3.33617C 14.825 3.21702 14.1219 3.15745 13.3308 3.15745C 11.8952 3.15745 10.6061 3.39574 9.40481 3.90213C 8.23287 4.40851 7.20743 5.1234 6.35777 6.01702C 5.50812 6.94043 4.83425 8.07234 4.36547 9.38298C 3.8967 10.6936 3.66231 12.183 3.66231 13.8213C 3.66231 15.5191 3.8967 17.0085 4.36547 18.3489C 4.83425 19.6894 5.50812 20.7915 6.32847 21.7149C 7.14883 22.6383 8.11568 23.3234 9.25832 23.8C 10.401 24.2766 11.6022 24.5149 12.8913 24.5149C 13.6824 24.5149 14.3856 24.4553 15.0301 24.366C 15.6747 24.2766 16.2607 24.1277 16.788 23.9191C 17.3154 23.7106 17.8428 23.4723 18.2823 23.1447C 18.751 22.8468 19.2198 22.4596 19.6886 22.0426C 19.9816 21.9234 20.1867 21.834 20.3624 21.834Z"/><path id="path8_fill_2" fill-rule="evenodd" d="M 25.3139 19.451C 25.9291 17.7532 26.2515 15.8766 26.2515 13.8511C 26.2515 11.8255 25.9291 9.94894 25.3139 8.25107C 24.6986 6.55319 23.7903 5.09363 22.6477 3.87234C 21.5051 2.65106 20.0988 1.69788 18.4874 1.01276C 16.8759 0.327667 15.0887 0 13.1257 0C 11.1627 0 9.37549 0.327667 7.7641 1.01276C 6.15271 1.69788 4.74634 2.65106 3.6037 3.87234C 2.46106 5.09363 1.58209 6.55319 0.937561 8.25107C 0.322266 9.94894 0 11.8255 0 13.8511C 0 15.9064 0.292969 17.7532 0.937561 19.451C 1.5528 21.1489 2.46106 22.6085 3.6037 23.8298C 4.77563 25.0808 6.15271 26.0042 7.7641 26.6894C 9.37549 27.3745 11.1627 27.7021 13.1257 27.7021C 15.0887 27.7021 16.8759 27.3745 18.4874 26.6894C 20.0988 26.0042 21.5051 25.0511 22.6477 23.8298C 23.7903 22.6085 24.6693 21.1489 25.3139 19.451ZM 21.8859 9.38297C 22.3254 10.6936 22.5598 12.183 22.5598 13.851C 22.5598 15.5191 22.3254 17.0085 21.8859 18.3192C 21.4465 19.6298 20.8019 20.7319 19.9816 21.6553C 19.1612 22.5489 18.165 23.2638 16.9931 23.7404C 15.8505 24.217 14.532 24.4553 13.0964 24.4553C 11.6608 24.4553 10.3716 24.217 9.19971 23.7404C 8.02777 23.2638 7.03162 22.5787 6.21124 21.6553C 5.39093 20.7617 4.74634 19.6298 4.30688 18.3192C 3.86737 17.0085 3.633 15.5191 3.633 13.851C 3.633 12.2128 3.86737 10.6936 4.30688 9.38297C 4.74634 8.04254 5.39093 6.94043 6.21124 6.01703C 7.03162 5.0936 8.02777 4.40851 9.19971 3.90213C 10.3716 3.39575 11.6608 3.15744 13.0964 3.15744C 14.532 3.15744 15.8212 3.39575 16.9931 3.90213C 18.165 4.40851 19.1612 5.0936 19.9816 6.01703C 20.8019 6.94043 21.4465 8.07233 21.8859 9.38297Z"/><path id="path9_fill_2" d="M 21.6223 27.1064L 17.9893 27.1064L 17.9893 14.7745L 3.63301 14.7745L 3.63301 27.1064L 0 27.1064L 0 0L 3.63301 0L 3.63301 12.0936L 17.9893 12.0936L 17.9893 0L 21.6223 0L 21.6223 27.1064Z"/><path id="path10_fill_2" fill-rule="evenodd" d="M 25.3139 19.451C 25.9291 17.7532 26.2515 15.8766 26.2515 13.8511C 26.2515 11.8255 25.9291 9.94894 25.3139 8.25107C 24.6986 6.55319 23.7903 5.09363 22.6477 3.87234C 21.5051 2.65106 20.0988 1.69788 18.4874 1.01276C 16.8759 0.327667 15.0887 0 13.1257 0C 11.1627 0 9.37549 0.327667 7.7641 1.01276C 6.15271 1.69788 4.74634 2.65106 3.6037 3.87234C 2.46106 5.09363 1.58209 6.55319 0.937561 8.25107C 0.322266 9.94894 0 11.8255 0 13.8511C 0 15.9064 0.292969 17.7532 0.937561 19.451C 1.5528 21.1489 2.46106 22.6085 3.6037 23.8298C 4.77563 25.0808 6.15271 26.0042 7.7641 26.6894C 9.37549 27.3745 11.1627 27.7021 13.1257 27.7021C 15.0887 27.7021 16.8759 27.3745 18.4874 26.6894C 20.0988 26.0042 21.5051 25.0511 22.6477 23.8298C 23.7903 22.6085 24.6693 21.1489 25.3139 19.451ZM 21.8566 9.38297C 22.2961 10.6936 22.5305 12.183 22.5305 13.851C 22.5305 15.5191 22.3254 17.0085 21.8566 18.3192C 21.4172 19.6298 20.7726 20.7319 19.9523 21.6553C 19.1319 22.5489 18.1064 23.2638 16.9638 23.7404C 15.8212 24.217 14.5027 24.4553 13.0671 24.4553C 11.6315 24.4553 10.3423 24.217 9.17041 23.7404C 7.99847 23.2638 7.00232 22.5787 6.18195 21.6553C 5.36163 20.7617 4.71704 19.6298 4.27759 18.3192C 3.83807 17.0085 3.6037 15.5191 3.6037 13.851C 3.6037 12.2128 3.83807 10.6936 4.27759 9.38297C 4.71704 8.04254 5.36163 6.94043 6.18195 6.01703C 7.00232 5.0936 7.99847 4.40851 9.17041 3.90213C 10.3423 3.39575 11.6315 3.15744 13.0671 3.15744C 14.5027 3.15744 15.7919 3.39575 16.9638 3.90213C 18.1357 4.40851 19.1319 5.0936 19.9523 6.01703C 20.7726 6.94043 21.4172 8.07233 21.8566 9.38297Z"/><path id="path11_fill_2" d="M 3.60371 24.0383L 15.1473 24.0383L 15.1473 27.1064L 0 27.1064L 0 0L 3.60371 0L 3.60371 24.0383Z"/><path id="path12_fill_2" fill-rule="evenodd" d="M 22.1497 19.1234C 22.765 17.4553 23.0872 15.6085 23.0872 13.583C 23.0872 11.5574 22.765 9.71063 22.1497 8.04254C 21.5344 6.37448 20.6555 4.94467 19.4835 3.7532C 18.3116 2.56171 16.9345 1.63831 15.3231 0.982971C 13.7117 0.327667 11.9245 0 9.96149 0L 0 0L 0 27.1064L 9.96149 27.1064C 11.9245 27.1064 13.7117 26.7787 15.3231 26.1234C 16.9345 25.4979 18.3409 24.5745 19.4835 23.383C 20.6262 22.2213 21.5051 20.7915 22.1497 19.1234ZM 18.7217 9.1149C 19.1612 10.4255 19.3956 11.9149 19.3956 13.583C 19.3956 15.2511 19.1612 16.7106 18.7217 18.0213C 18.2822 19.3319 17.6377 20.4341 16.8173 21.3277C 15.9969 22.2511 15.0008 22.9362 13.8289 23.4128C 12.6569 23.8894 11.3678 24.1277 9.93219 24.1277L 3.6037 24.1277L 3.6037 2.97873L 9.93219 2.97873C 11.3678 2.97873 12.6569 3.21704 13.8289 3.69363C 15.0008 4.17023 15.9969 4.8851 16.8173 5.77872C 17.6377 6.70215 18.2822 7.80426 18.7217 9.1149Z"/><path id="path13_fill_2" d="M 16.4072 0.0595745L 16.4072 3.0383L 3.60371 3.0383L 3.60371 12.034L 13.9754 12.034L 13.9754 14.8936L 3.60371 14.8936L 3.60371 24.1277L 16.4072 24.1277L 16.4072 27.1064L 0 27.1064L 0 0L 16.4072 0L 16.4072 0.0595745Z"/><path id="path14_fill_2" fill-rule="evenodd" d="M 3.5744 27.1064L 3.5744 15.7872L 3.5744 15.7574L 6.38708 15.7574C 6.88513 15.7574 7.26605 15.8468 7.50043 15.966C 7.7348 16.1149 7.96918 16.3234 8.17426 16.6213L 15.0887 26.3021C 15.411 26.8085 15.9091 27.0766 16.5536 27.0766L 19.7472 27.0766L 11.9831 16.3234C 11.6315 15.817 11.2213 15.4298 10.7819 15.1617C 11.8073 14.9234 12.7155 14.5659 13.5359 14.0894C 14.327 13.6128 15.0302 13.0468 15.5868 12.3915C 16.1435 11.7362 16.5829 10.9915 16.8759 10.1574C 17.1689 9.32339 17.3154 8.42978 17.3154 7.47659C 17.3154 6.3447 17.1103 5.30212 16.7294 4.37872C 16.3486 3.45532 15.7333 2.65106 14.9422 1.99576C 14.1512 1.34042 13.1257 0.863831 11.8952 0.506378C 10.6647 0.178711 9.229 0 7.52972 0L 0 0L 0 27.1064L 3.5744 27.1064ZM 7.35388 13.1064L 3.5744 13.1064L 3.5744 2.85959L 7.52972 2.85959C 9.60986 2.85959 11.1627 3.24683 12.2175 4.08087C 13.2722 4.91492 13.7996 6.13617 13.7996 7.74469C 13.7996 8.54895 13.6531 9.26385 13.3894 9.91916C 13.0964 10.5745 12.6862 11.1404 12.1589 11.617C 11.6022 12.0936 10.9283 12.4511 10.1373 12.7192C 9.34619 12.9872 8.40863 13.1064 7.35388 13.1064Z"/></defs></svg></svg>

    </svg>
